<mxfile host="app.diagrams.net" modified="2024-04-14T04:35:55.437Z" agent="Mozilla/5.0 (Windows NT 10.0; Win64; x64) AppleWebKit/537.36 (KHTML, like Gecko) Chrome/123.0.0.0 Safari/537.36" etag="r0C8CwJxrchZOkcd7Itk" version="24.2.5" type="device">
  <diagram name="Page-1" id="5Psb2FT-GWWxkbOIOQfX">
    <mxGraphModel dx="581" dy="345" grid="1" gridSize="10" guides="1" tooltips="1" connect="1" arrows="1" fold="1" page="1" pageScale="1" pageWidth="850" pageHeight="1100" math="0" shadow="0">
      <root>
        <mxCell id="0" />
        <mxCell id="1" parent="0" />
        <mxCell id="iwrwHDuzfaxHaz8j-Tm9-9" value="" style="rounded=1;whiteSpace=wrap;html=1;dashed=1;strokeColor=#FF3333;strokeWidth=3;" vertex="1" parent="1">
          <mxGeometry x="180" y="160" width="150" height="170" as="geometry" />
        </mxCell>
        <mxCell id="iwrwHDuzfaxHaz8j-Tm9-7" style="edgeStyle=orthogonalEdgeStyle;rounded=0;orthogonalLoop=1;jettySize=auto;html=1;entryX=0.5;entryY=0;entryDx=0;entryDy=0;dashed=1;" edge="1" parent="1" source="iwrwHDuzfaxHaz8j-Tm9-1" target="iwrwHDuzfaxHaz8j-Tm9-4">
          <mxGeometry relative="1" as="geometry" />
        </mxCell>
        <mxCell id="iwrwHDuzfaxHaz8j-Tm9-1" value="&lt;font face=&quot;Times New Roman&quot;&gt;clean sample&lt;/font&gt;" style="text;html=1;align=center;verticalAlign=middle;whiteSpace=wrap;rounded=0;fillColor=#cdeb8b;strokeColor=#36393d;" vertex="1" parent="1">
          <mxGeometry x="65" y="90" width="80" height="30" as="geometry" />
        </mxCell>
        <mxCell id="iwrwHDuzfaxHaz8j-Tm9-6" style="edgeStyle=orthogonalEdgeStyle;rounded=0;orthogonalLoop=1;jettySize=auto;html=1;entryX=0.5;entryY=0;entryDx=0;entryDy=0;exitX=0.5;exitY=1;exitDx=0;exitDy=0;dashed=1;" edge="1" parent="1" source="iwrwHDuzfaxHaz8j-Tm9-2" target="iwrwHDuzfaxHaz8j-Tm9-4">
          <mxGeometry relative="1" as="geometry">
            <Array as="points">
              <mxPoint x="220" y="105" />
              <mxPoint x="225" y="105" />
              <mxPoint x="225" y="150" />
              <mxPoint x="105" y="150" />
            </Array>
          </mxGeometry>
        </mxCell>
        <mxCell id="iwrwHDuzfaxHaz8j-Tm9-16" value="&lt;font style=&quot;font-size: 9px;&quot;&gt;&lt;b&gt;prediction&lt;/b&gt;&lt;/font&gt;" style="edgeLabel;html=1;align=center;verticalAlign=middle;resizable=0;points=[];" vertex="1" connectable="0" parent="iwrwHDuzfaxHaz8j-Tm9-6">
          <mxGeometry x="0.178" y="-1" relative="1" as="geometry">
            <mxPoint x="-55" as="offset" />
          </mxGeometry>
        </mxCell>
        <mxCell id="iwrwHDuzfaxHaz8j-Tm9-2" value="&lt;font face=&quot;Times New Roman&quot;&gt;victim model&lt;/font&gt;" style="rounded=0;whiteSpace=wrap;html=1;fillColor=#cce5ff;strokeColor=#36393d;shadow=0;glass=0;" vertex="1" parent="1">
          <mxGeometry x="180" y="90" width="80" height="30" as="geometry" />
        </mxCell>
        <mxCell id="iwrwHDuzfaxHaz8j-Tm9-13" style="edgeStyle=orthogonalEdgeStyle;rounded=0;orthogonalLoop=1;jettySize=auto;html=1;entryX=0;entryY=0.5;entryDx=0;entryDy=0;endArrow=blockThin;endFill=1;" edge="1" parent="1" source="iwrwHDuzfaxHaz8j-Tm9-4" target="iwrwHDuzfaxHaz8j-Tm9-11">
          <mxGeometry relative="1" as="geometry">
            <Array as="points">
              <mxPoint x="188" y="201" />
              <mxPoint x="220" y="201" />
            </Array>
          </mxGeometry>
        </mxCell>
        <mxCell id="iwrwHDuzfaxHaz8j-Tm9-4" value="&lt;font style=&quot;font-size: 10px;&quot;&gt;Clean Prediction&lt;/font&gt;" style="rounded=0;whiteSpace=wrap;html=1;" vertex="1" parent="1">
          <mxGeometry x="55" y="185.63" width="100" height="30" as="geometry" />
        </mxCell>
        <mxCell id="iwrwHDuzfaxHaz8j-Tm9-12" style="edgeStyle=orthogonalEdgeStyle;rounded=0;orthogonalLoop=1;jettySize=auto;html=1;entryX=0;entryY=0.5;entryDx=0;entryDy=0;endArrow=block;endFill=1;" edge="1" parent="1" source="iwrwHDuzfaxHaz8j-Tm9-10" target="iwrwHDuzfaxHaz8j-Tm9-11">
          <mxGeometry relative="1" as="geometry">
            <Array as="points">
              <mxPoint x="170" y="245" />
              <mxPoint x="170" y="201" />
            </Array>
          </mxGeometry>
        </mxCell>
        <mxCell id="iwrwHDuzfaxHaz8j-Tm9-18" value="&lt;div style=&quot;&quot;&gt;&lt;br&gt;&lt;/div&gt;" style="edgeLabel;html=1;align=center;verticalAlign=middle;resizable=0;points=[];" vertex="1" connectable="0" parent="iwrwHDuzfaxHaz8j-Tm9-12">
          <mxGeometry x="0.3696" y="-1" relative="1" as="geometry">
            <mxPoint y="-1" as="offset" />
          </mxGeometry>
        </mxCell>
        <mxCell id="iwrwHDuzfaxHaz8j-Tm9-10" value="&lt;font style=&quot;font-size: 10px;&quot;&gt;Clean Prediction&lt;/font&gt;" style="rounded=0;whiteSpace=wrap;html=1;" vertex="1" parent="1">
          <mxGeometry x="55" y="230" width="100" height="30" as="geometry" />
        </mxCell>
        <mxCell id="iwrwHDuzfaxHaz8j-Tm9-11" value="&lt;div style=&quot;text-align: justify; padding: 2px; margin-top: 0px; margin-right: 0px; margin-bottom: 0px;&quot;&gt;&lt;span style=&quot;font-size: 9px; background-color: initial;&quot;&gt;&lt;font face=&quot;Times New Roman&quot;&gt;Top K classes that are most likely to be predicted &lt;b&gt;wrongly&lt;/b&gt;&lt;/font&gt;&lt;/span&gt;&lt;/div&gt;" style="rounded=1;whiteSpace=wrap;html=1;fillColor=#ffcccc;strokeColor=#36393d;" vertex="1" parent="1">
          <mxGeometry x="240" y="174.85" width="80" height="51.56" as="geometry" />
        </mxCell>
        <mxCell id="iwrwHDuzfaxHaz8j-Tm9-15" value="" style="endArrow=classic;html=1;rounded=0;exitX=0;exitY=0.5;exitDx=0;exitDy=0;entryX=0;entryY=0.5;entryDx=0;entryDy=0;" edge="1" parent="1" source="iwrwHDuzfaxHaz8j-Tm9-1" target="iwrwHDuzfaxHaz8j-Tm9-10">
          <mxGeometry width="50" height="50" relative="1" as="geometry">
            <mxPoint x="180" y="240" as="sourcePoint" />
            <mxPoint x="230" y="190" as="targetPoint" />
            <Array as="points">
              <mxPoint x="40" y="105" />
              <mxPoint x="40" y="245" />
            </Array>
          </mxGeometry>
        </mxCell>
        <mxCell id="iwrwHDuzfaxHaz8j-Tm9-22" value="&lt;font face=&quot;Times New Roman&quot; style=&quot;font-size: 9px;&quot;&gt;&lt;b&gt;per-class&lt;/b&gt;&lt;/font&gt;&lt;div style=&quot;line-height: 100%; font-size: 9px;&quot;&gt;&lt;font face=&quot;sNqmjM9lzsfHsVUJaw4v&quot; style=&quot;font-size: 9px;&quot;&gt;&lt;b&gt;confidence&lt;/b&gt;&lt;/font&gt;&lt;/div&gt;" style="text;html=1;align=center;verticalAlign=middle;whiteSpace=wrap;rounded=0;" vertex="1" parent="1">
          <mxGeometry x="177" y="174.85" width="60" height="20" as="geometry" />
        </mxCell>
        <mxCell id="iwrwHDuzfaxHaz8j-Tm9-23" value="&lt;p style=&quot;line-height: 103%; padding: 4px 2px;&quot;&gt;&lt;font style=&quot;font-size: 8px;&quot;&gt;Iterative&amp;nbsp;Fast Gradient Sign Method &lt;b&gt;&lt;font color=&quot;#ff3333&quot;&gt;adversarial perturbation&lt;/font&gt;&lt;/b&gt;&lt;/font&gt;&lt;/p&gt;" style="rounded=0;whiteSpace=wrap;html=1;fillColor=none;strokeColor=#FF0000;dashed=1;strokeWidth=1;align=center;" vertex="1" parent="1">
          <mxGeometry x="193" y="240" width="80" height="65" as="geometry" />
        </mxCell>
        <mxCell id="iwrwHDuzfaxHaz8j-Tm9-24" value="" style="endArrow=classic;html=1;rounded=0;exitX=0.5;exitY=1;exitDx=0;exitDy=0;entryX=1;entryY=0.5;entryDx=0;entryDy=0;" edge="1" parent="1" source="iwrwHDuzfaxHaz8j-Tm9-11" target="iwrwHDuzfaxHaz8j-Tm9-25">
          <mxGeometry width="50" height="50" relative="1" as="geometry">
            <mxPoint x="190" y="280" as="sourcePoint" />
            <mxPoint x="160" y="310" as="targetPoint" />
            <Array as="points">
              <mxPoint x="280" y="310" />
            </Array>
          </mxGeometry>
        </mxCell>
        <mxCell id="iwrwHDuzfaxHaz8j-Tm9-25" value="&lt;font face=&quot;Times New Roman&quot;&gt;adversarial sample&lt;/font&gt;" style="rounded=0;whiteSpace=wrap;html=1;fillColor=#ffff88;strokeColor=#36393d;shadow=0;glass=0;" vertex="1" parent="1">
          <mxGeometry x="50" y="295" width="105" height="30" as="geometry" />
        </mxCell>
      </root>
    </mxGraphModel>
  </diagram>
</mxfile>
